<svg width="134" height="68" viewBox="0 0 134 68" fill="none" xmlns="http://www.w3.org/2000/svg">
<path d="M0 14.9143C0 6.86724 6.4534 0.879883 14.112 0.879883C18.0385 0.879883 21.3823 2.47349 23.7928 5.00048C24.0646 5.27234 23.9093 5.5442 23.7151 5.77851L20.2548 9.4719C20.0606 9.74376 19.711 9.74376 19.4767 9.54958C18.0385 8.3055 16.2494 7.52747 14.112 7.52747C9.99145 7.52747 6.84177 10.637 6.84177 14.9143C6.84177 19.1915 9.99145 22.2622 14.112 22.2622C16.2507 22.2622 18.0385 21.4842 19.4767 20.2401C19.7097 20.0459 20.0593 20.0459 20.2936 20.3178L23.7151 24.0112C23.9093 24.2053 24.0646 24.4772 23.7928 24.7503C21.3823 27.3162 18.0385 28.9098 14.112 28.9098C6.4534 28.9098 0 22.9613 0 14.9143Z" fill="white" fill-opacity="0.5"/>
<path d="M25.4253 18.8811C25.4253 13.2834 29.6624 8.88965 35.4944 8.88965C41.3264 8.88965 45.5247 13.2834 45.5247 18.8811C45.5247 24.4788 41.2876 28.8725 35.4944 28.8725C29.7012 28.8725 25.4253 24.4801 25.4253 18.8811ZM35.4944 22.8852C37.5554 22.8852 39.2655 21.4081 39.2655 18.8811C39.2655 16.3541 37.5554 14.877 35.4944 14.877C33.4335 14.877 31.6845 16.3541 31.6845 18.8811C31.6845 21.4081 33.3946 22.8852 35.4944 22.8852Z" fill="white" fill-opacity="0.5"/>
<path d="M48.7908 27.7839V1.22979C48.7908 0.880256 49.0626 0.608398 49.4122 0.608398H54.738C55.0875 0.608398 55.3607 0.880256 55.3607 1.22979V27.7826C55.3607 28.1321 55.0888 28.4053 54.738 28.4053H49.4122C49.0626 28.4053 48.7908 28.1334 48.7908 27.7826V27.7839Z" fill="white" fill-opacity="0.5"/>
<path d="M59.5991 27.7839V1.22979C59.5991 0.880256 59.871 0.608398 60.2205 0.608398H65.5463C65.8959 0.608398 66.169 0.880256 66.169 1.22979V27.7826C66.169 28.1321 65.8972 28.4053 65.5463 28.4053H60.2205C59.871 28.4053 59.5991 28.1334 59.5991 27.7826V27.7839Z" fill="white" fill-opacity="0.5"/>
<path d="M69.4353 18.8034C69.4353 13.2044 73.3617 8.88965 79.3102 8.88965C85.2587 8.88965 88.5236 13.1268 88.5236 18.0254C88.5236 20.0863 88.0188 21.3692 86.1132 21.3692H75.811C76.5114 23.1182 78.1827 23.7797 80.5543 23.7797C81.643 23.7797 82.8871 23.7409 84.4807 22.8852C84.7914 22.7298 84.9856 22.8075 85.1811 23.1182L86.9689 25.6064C87.1242 25.8394 87.1631 26.1501 86.7747 26.5009C85.1811 28.1333 82.7318 28.8725 80.0106 28.8725C73.7514 28.8725 69.4366 24.6743 69.4366 18.8034H69.4353ZM82.7305 16.8978C82.3421 14.8757 80.9427 14.2155 79.3478 14.2155C77.7529 14.2155 76.1994 14.9547 75.6932 16.8978H82.7305Z" fill="white" fill-opacity="0.5"/>
<path d="M93.1892 34.0042C92.762 33.7323 92.762 33.1485 92.9562 32.7601L94.3168 30.1166C94.5498 29.6894 94.9381 29.4952 95.4443 29.7671C97.1156 30.6616 98.7494 31.1277 100.304 31.1277C102.52 31.1277 104.97 30.1943 104.97 27.2013V25.6853C103.842 27.0847 102.093 27.9405 99.6439 27.9405C94.3181 27.9405 90.8188 24.014 90.8188 18.4151C90.8188 12.8161 94.3181 8.88965 99.6439 8.88965C102.21 8.88965 103.881 9.70652 105.009 11.1448L105.125 9.97838C105.125 9.62884 105.397 9.35569 105.748 9.35569H110.569C110.918 9.35569 111.191 9.62755 111.191 9.97838V27.2013C111.191 34.3939 105.554 36.3758 100.967 36.3758C98.0516 36.3758 95.2514 35.5978 93.1918 34.0042H93.1892ZM100.964 22.1071C103.142 22.1071 104.697 20.6689 104.697 18.3749C104.697 16.081 103.142 14.7204 100.964 14.7204C98.7869 14.7204 97.1933 16.1586 97.1933 18.4138C97.1933 20.6689 98.7869 22.1071 100.964 22.1071Z" fill="white" fill-opacity="0.5"/>
<path d="M114.455 18.8034C114.455 13.2044 118.381 8.88965 124.33 8.88965C130.279 8.88965 133.543 13.1268 133.543 18.0254C133.543 20.0863 133.039 21.3692 131.133 21.3692H120.831C121.531 23.1182 123.202 23.7797 125.574 23.7797C126.663 23.7797 127.907 23.7409 129.5 22.8852C129.811 22.7298 130.005 22.8075 130.201 23.1182L131.989 25.6064C132.144 25.8394 132.183 26.1501 131.794 26.5009C130.201 28.1333 127.752 28.8725 125.03 28.8725C118.771 28.8725 114.456 24.6743 114.456 18.8034H114.455ZM127.752 16.8978C127.363 14.8757 125.964 14.2155 124.369 14.2155C122.774 14.2155 121.22 14.9547 120.714 16.8978H127.752Z" fill="white" fill-opacity="0.5"/>
<path d="M0.778151 59.7557V33.7855C0.778151 33.4359 1.01117 33.1641 1.36071 33.1641H11.1191C15.8624 33.1641 18.6613 36.2736 18.6613 40.1625C18.6613 43.1555 16.8735 44.9834 15.2786 45.8003C17.7667 46.5007 20.4879 48.5603 20.4879 52.6032C20.4879 57.23 17.2994 60.3784 10.6906 60.3784H1.35941C1.00988 60.3784 0.776855 60.1065 0.776855 59.757L0.778151 59.7557ZM9.64203 43.7005C11.3133 43.7005 12.3244 43.0791 12.3244 41.3289C12.3244 39.5786 11.3133 39.0737 9.64203 39.0737H7.42574V43.7005H9.64203ZM10.2634 54.4687C12.2079 54.4687 13.6073 53.6518 13.6073 51.631C13.6073 49.6102 12.2079 48.871 10.2634 48.871H7.42574V54.47H10.2634V54.4687Z" fill="white" fill-opacity="0.5"/>
<path d="M23.5598 52.9523V41.9498C23.5598 41.6003 23.8317 41.3271 24.1812 41.3271H29.4682C29.8177 41.3271 30.0909 41.599 30.0909 41.9498V51.3186C30.0909 53.6902 31.0631 54.8566 32.9674 54.8566C34.8717 54.8566 35.8828 53.6902 35.8828 51.3186V41.9498C35.8828 41.6003 36.1546 41.3271 36.5042 41.3271H41.7523C42.1019 41.3271 42.4126 41.599 42.4126 41.9498V59.7553C42.4126 60.1048 42.1019 60.3766 41.7523 60.3766H36.6595C36.31 60.3766 36.077 60.2213 36.0381 59.7164L35.8828 57.5778C34.794 59.5222 33.0839 60.844 30.4016 60.844C26.4752 60.844 23.5598 57.8898 23.5598 52.9523Z" fill="white" fill-opacity="0.5"/>
<path d="M45.4483 50.8528C45.4483 45.2551 49.064 40.8614 54.3122 40.8614C56.6838 40.8614 58.3551 41.5618 59.5992 42.9223V33.2028C59.5992 32.8532 59.8711 32.5801 60.2206 32.5801H65.5464C65.896 32.5801 66.1678 32.8519 66.1678 33.2028V59.7556C66.1678 60.1051 65.8571 60.3769 65.5076 60.3769H60.7255C60.3759 60.3769 60.1041 60.1051 60.1041 59.7556L60.0264 58.1619C58.7435 59.8332 56.9156 60.8443 54.3109 60.8443C49.0627 60.8443 45.447 56.4907 45.447 50.8528H45.4483ZM55.7893 54.9359C58.0833 54.9359 59.6769 53.3034 59.6769 50.8153C59.6769 48.3271 58.0833 46.7724 55.7893 46.7724C53.4953 46.7724 51.824 48.4048 51.824 50.8541C51.824 53.3034 53.5342 54.9359 55.7893 54.9359Z" fill="white" fill-opacity="0.5"/>
<path d="M69.2413 50.8528C69.2413 45.2551 72.857 40.8614 78.1052 40.8614C80.4768 40.8614 82.1481 41.5618 83.3922 42.9223V33.2028C83.3922 32.8532 83.664 32.5801 84.0136 32.5801H89.3394C89.6889 32.5801 89.9608 32.8519 89.9608 33.2028V59.7556C89.9608 60.1051 89.6501 60.3769 89.3006 60.3769H84.5184C84.1689 60.3769 83.897 60.1051 83.897 59.7556L83.8194 58.1619C82.5365 59.8332 80.7085 60.8443 78.1039 60.8443C72.8557 60.8443 69.24 56.4907 69.24 50.8528H69.2413ZM79.5823 54.9359C81.8762 54.9359 83.4698 53.3034 83.4698 50.8153C83.4698 48.3271 81.8762 46.7724 79.5823 46.7724C77.2883 46.7724 75.617 48.4048 75.617 50.8541C75.617 53.3034 77.3271 54.9359 79.5823 54.9359Z" fill="white" fill-opacity="0.5"/>
<path d="M97.4277 67.0644L100.227 60.378L92.8398 41.9887C92.6844 41.5615 92.9175 41.3271 93.3447 41.3271H98.7482C99.0589 41.3271 99.3709 41.4825 99.4874 41.7932L103.375 52.7569L107.301 41.7932C107.418 41.4825 107.729 41.3271 108.041 41.3271H113.444C113.871 41.3271 114.065 41.5602 113.91 41.9887L103.841 67.2974C103.724 67.6081 103.414 67.7634 103.102 67.7634H97.9313C97.4653 67.7634 97.1921 67.5304 97.4264 67.0631L97.4277 67.0644Z" fill="white" fill-opacity="0.5"/>
</svg>
